<svg width="36" height="40" viewBox="0 0 36 40" fill="none" xmlns="http://www.w3.org/2000/svg">
<path fill-rule="evenodd" clip-rule="evenodd" d="M19.918 0.552473L33.6505 8.48093C34.9264 9.21756 35.7124 10.5789 35.7124 12.0522V27.9091C35.7124 29.3823 34.9264 30.7437 33.6505 31.4803L19.918 39.4088C18.6422 40.1454 17.0702 40.1454 15.7943 39.4088L2.06186 31.4803C0.785975 30.7437 0 29.3823 0 27.9091V12.0522C0 10.5789 0.785975 9.21756 2.06186 8.48093L15.7943 0.552473C17.0702 -0.184158 18.6422 -0.184158 19.918 0.552473ZM17.8562 13.795L12.4993 16.8878V23.0734L17.8562 26.1662L23.2131 23.0734V16.8878L17.8562 13.795Z" fill="white"/>
</svg>
